<?xml version="1.0" standalone="yes"?>
<svg xmlns="http://www.w3.org/2000/svg" width="225" height="225">
<path style="fill:#ffffff; stroke:none;" d="M0 0L0 103C1.55349 99.3321 1.55748 94.9318 2.42438 91C4.06439 83.5619 6.17704 75.9584 9.31173 69C25.2745 33.5656 62.2615 1.33728 103 1C94.6425 -2.50693 81.0596 0 72 0L0 0z"/>
<path style="fill:#cbcbcb; stroke:none;" d="M103 0C105.052 0.874252 106.747 0.952789 109 1C106.948 0.125748 105.253 0.0472107 103 0z"/>
<path style="fill:#aaaaaa; stroke:none;" d="M109 0C111.613 1.09772 114.165 0.992783 117 1C114.387 -0.097702 111.835 0.00721741 109 0z"/>
<path style="fill:#e2e2e2; stroke:none;" d="M117 0C118.769 0.778931 120.036 0.912415 122 1C120.231 0.221069 118.964 0.0875854 117 0z"/>
<path style="fill:#ffffff; stroke:none;" d="M122 0C125.668 1.5535 130.068 1.55748 134 2.42438C141.438 4.06438 149.042 6.17703 156 9.31172C191.412 25.2643 223.663 62.3023 224 103C227.507 94.6425 225 81.0596 225 72L225 0L122 0z"/>
<path style="fill:#cbcbcb; stroke:none;" d="M95.6667 1.33333C95.2222 1.77785 96.2778 1.72223 96.3333 1.66667C96.7778 1.22224 95.7222 1.27777 95.6667 1.33333z"/>
<path style="fill:#888888; stroke:none;" d="M97 1L98 3C99.6351 2.45496 99.455 2.63513 100 1L97 1z"/>
<path style="fill:#000000; stroke:none;" d="M100 1C102.052 1.87424 103.747 1.95279 106 2C103.948 1.12576 102.253 1.04721 100 1z"/>
<path style="fill:#3d3d3d; stroke:none;" d="M106.667 1.33333C106.222 1.77786 107.278 1.72223 107.333 1.66667C107.778 1.22224 106.722 1.27777 106.667 1.33333z"/>
<path style="fill:#555555; stroke:none;" d="M108 1C111.163 2.32736 114.586 1.99963 118 2C114.837 0.672638 111.414 1.00037 108 1z"/>
<path style="fill:#000000; stroke:none;" d="M118 1C120.332 1.98453 122.457 1.98126 125 2C122.668 1.01547 120.543 1.01874 118 1z"/>
<path style="fill:#888888; stroke:none;" d="M125 1L126 3C127.635 2.45496 127.455 2.63513 128 1L125 1z"/>
<path style="fill:#e2e2e2; stroke:none;" d="M128.667 1.33333C128.222 1.77783 129.278 1.7222 129.333 1.66667C129.778 1.2222 128.722 1.27774 128.667 1.33333z"/>
<path style="fill:#a1a1a1; stroke:none;" d="M90.6667 2.33333C90.2222 2.77782 91.2778 2.72223 91.3333 2.66667C91.7777 2.22226 90.7223 2.27774 90.6667 2.33333z"/>
<path style="fill:#676767; stroke:none;" d="M92 2L93 3L92 2z"/>
<path style="fill:#000000; stroke:none;" d="M93 2C94.2484 2.6848 94.5484 2.74879 96 3C94.7517 2.31525 94.4515 2.25119 93 2z"/>
<path style="fill:#555555; stroke:none;" d="M96.6667 2.33333C96.2222 2.77783 97.2778 2.72221 97.3333 2.66667C97.7777 2.22226 96.7222 2.27776 96.6667 2.33333z"/>
<path style="fill:#bababa; stroke:none;" d="M99.6667 2.33333C99.2222 2.77782 100.278 2.72223 100.333 2.66667C100.778 2.22227 99.7223 2.27774 99.6667 2.33333z"/>
<path style="fill:#ffffff; stroke:none;" d="M101 2.42516C83.3415 4.82887 67.0728 9.98279 52 19.6921C39.6972 27.6171 29.1112 37.7919 21.0039 50C-8.29867 94.124 -3.33284 156.108 36.0008 192.91C49.615 205.649 66.1001 214.543 84 219.572C98.8407 223.741 114.844 223.863 130 221.715C144.931 219.598 159.298 213.991 172 205.947C182.995 198.983 192.59 190.356 200.497 180C239.245 129.245 226.029 53.2727 172 19.0532C161.304 12.2788 149.441 7.14491 137 4.60107C125.379 2.22476 112.832 0.81459 101 2.42516z"/>
<path style="fill:#bababa; stroke:none;" d="M123 2C124.248 2.6848 124.548 2.74878 126 3C124.752 2.31525 124.451 2.25119 123 2z"/>
<path style="fill:#2b2b2b; stroke:none;" d="M127.667 2.33333C127.222 2.77773 128.278 2.72224 128.333 2.66667C128.778 2.22212 127.722 2.27783 127.667 2.33333z"/>
<path style="fill:#000000; stroke:none;" d="M129 2C130.248 2.68475 130.549 2.74881 132 3C130.752 2.31517 130.452 2.25122 129 2z"/>
<path style="fill:#676767; stroke:none;" d="M132 2L133 3L132 2z"/>
<path style="fill:#cbcbcb; stroke:none;" d="M133.667 2.33333C133.222 2.7778 134.278 2.7222 134.333 2.66667C134.778 2.22223 133.722 2.27774 133.667 2.33333z"/>
<path style="fill:#b5b5b5; stroke:none;" d="M86 3L87 4L86 3z"/>
<path style="fill:#8f8f8f; stroke:none;" d="M87.3333 3.66667C87.2778 3.72217 87.2222 4.7778 87.6667 4.33333C87.7223 4.27774 87.7778 3.22226 87.3333 3.66667z"/>
<path style="fill:#000000; stroke:none;" d="M88 3C89.2484 3.68483 89.5483 3.74878 91 4C89.7517 3.31523 89.4515 3.25119 88 3z"/>
<path style="fill:#5a5a5a; stroke:none;" d="M91 3L92 4L91 3z"/>
<path style="fill:#c0c0c0; stroke:none;" d="M92.6667 3.33333C92.2222 3.77782 93.2778 3.72223 93.3333 3.66667C93.7778 3.22223 92.7222 3.2778 92.6667 3.33333z"/>
<path style="fill:#9c9c9c; stroke:none;" d="M131.667 3.33333C131.222 3.77779 132.278 3.72221 132.333 3.66667C132.778 3.22221 131.722 3.27776 131.667 3.33333z"/>
<path style="fill:#616161; stroke:none;" d="M133 3L134 4L133 3z"/>
<path style="fill:#000000; stroke:none;" d="M134 3C135.248 3.68475 135.549 3.74881 137 4C135.752 3.31519 135.452 3.25122 134 3z"/>
<path style="fill:#8f8f8f; stroke:none;" d="M137 3L137 5C138.635 4.45496 138.455 4.63515 139 3L137 3z"/>
<path style="fill:#bababa; stroke:none;" d="M82 4L83 5L82 4z"/>
<path style="fill:#8f8f8f; stroke:none;" d="M83.3333 4.66667C83.2778 4.72217 83.2222 5.7778 83.6667 5.33333C83.7223 5.27773 83.7777 4.22227 83.3333 4.66667z"/>
<path style="fill:#000000; stroke:none;" d="M84.6667 4.33333C84.2222 4.77782 85.2778 4.72224 85.3333 4.66667C85.7778 4.22223 84.7222 4.27777 84.6667 4.33333z"/>
<path style="fill:#3d3d3d; stroke:none;" d="M86 4L87 5L86 4z"/>
<path style="fill:#c8c8c8; stroke:none;" d="M136 4L137 5L136 4z"/>
<path style="fill:#383838; stroke:none;" d="M138 4L139 5L138 4z"/>
<path style="fill:#000000; stroke:none;" d="M139.667 4.33333C139.222 4.77779 140.278 4.72224 140.333 4.66667C140.778 4.2222 139.722 4.27777 139.667 4.33333z"/>
<path style="fill:#8f8f8f; stroke:none;" d="M141.333 4.66667C141.278 4.7222 141.222 5.7778 141.667 5.33333C141.722 5.27774 141.778 4.22226 141.333 4.66667z"/>
<path style="fill:#bababa; stroke:none;" d="M142 4L143 5L142 4z"/>
<path style="fill:#9c9c9c; stroke:none;" d="M79 5L80 6L79 5z"/>
<path style="fill:#3d3d3d; stroke:none;" d="M80 5L81 6L80 5z"/>
<path style="fill:#252525; stroke:none;" d="M81.6667 5.33333C81.2222 5.77783 82.2778 5.72223 82.3333 5.66667C82.7778 5.22223 81.7222 5.27777 81.6667 5.33333z"/>
<path style="fill:#000000; stroke:none;" d="M142.667 5.33333C142.222 5.77779 143.278 5.72221 143.333 5.66667C143.778 5.22221 142.722 5.27773 142.667 5.33333z"/>
<path style="fill:#3d3d3d; stroke:none;" d="M144 5L145 6L144 5z"/>
<path style="fill:#9c9c9c; stroke:none;" d="M145 5L146 6L145 5z"/>
<path style="fill:#8f8f8f; stroke:none;" d="M76 6L77 7L76 6z"/>
<path style="fill:#000000; stroke:none;" d="M77.6667 6.33333C77.2222 6.77785 78.2778 6.72221 78.3333 6.66667C78.7778 6.22223 77.7222 6.27777 77.6667 6.33333z"/>
<path style="fill:#616161; stroke:none;" d="M79 6L80 7L79 6z"/>
<path style="fill:#b5b5b5; stroke:none;" d="M80 6L81 7L80 6M144 6L145 7L144 6z"/>
<path style="fill:#616161; stroke:none;" d="M145 6L146 7L145 6z"/>
<path style="fill:#000000; stroke:none;" d="M146.667 6.33333C146.222 6.77783 147.278 6.7222 147.333 6.66667C147.778 6.22221 146.722 6.27773 146.667 6.33333z"/>
<path style="fill:#676767; stroke:none;" d="M148.333 6.66667C148.278 6.72221 148.222 7.77777 148.667 7.33333C148.722 7.27777 148.778 6.22224 148.333 6.66667z"/>
<path style="fill:#a1a1a1; stroke:none;" d="M73 7L74 8L73 7z"/>
<path style="fill:#000000; stroke:none;" d="M74.6667 7.33333C74.2222 7.77782 75.2778 7.72221 75.3333 7.66667C75.7777 7.22226 74.7222 7.27777 74.6667 7.33333z"/>
<path style="fill:#616161; stroke:none;" d="M76 7L77 8L76 7z"/>
<path style="fill:#c0c0c0; stroke:none;" d="M77 7L78 8L77 7M147 7L148 8L147 7z"/>
<path style="fill:#1f1f1f; stroke:none;" d="M149.667 7.33333C149.222 7.77783 150.278 7.72218 150.333 7.66667C150.778 7.22223 149.722 7.27774 149.667 7.33333z"/>
<path style="fill:#a1a1a1; stroke:none;" d="M151 7L152 8L151 7z"/>
<path style="fill:#cbcbcb; stroke:none;" d="M70 8L71 9L70 8z"/>
<path style="fill:#5a5a5a; stroke:none;" d="M71 8L72 9L71 8z"/>
<path style="fill:#000000; stroke:none;" d="M72 8L73 9L72 8z"/>
<path style="fill:#464646; stroke:none;" d="M73 8L74 9L73 8z"/>
<path style="fill:#b5b5b5; stroke:none;" d="M74 8L75 9L74 8M150 8L151 9L150 8z"/>
<path style="fill:#4e4e4e; stroke:none;" d="M151 8L152 9L151 8z"/>
<path style="fill:#000000; stroke:none;" d="M152 8L153 9L152 8z"/>
<path style="fill:#5a5a5a; stroke:none;" d="M153 8L154 9L153 8z"/>
<path style="fill:#cbcbcb; stroke:none;" d="M154 8L155 9L154 8z"/>
<path style="fill:#a1a1a1; stroke:none;" d="M68 9L69 10L68 9z"/>
<path style="fill:#000000; stroke:none;" d="M69.6667 9.33333C69.2222 9.77783 70.2778 9.72221 70.3333 9.66667C70.7777 9.22224 69.7222 9.27776 69.6667 9.33333z"/>
<path style="fill:#8f8f8f; stroke:none;" d="M71 9L72 10L71 9M153 9L154 10L153 9z"/>
<path style="fill:#0f0f0f; stroke:none;" d="M154.667 9.33333C154.222 9.77779 155.278 9.72224 155.333 9.66667C155.778 9.22221 154.722 9.27776 154.667 9.33333z"/>
<path style="fill:#a1a1a1; stroke:none;" d="M156 9L157 10L156 9z"/>
<path style="fill:#616161; stroke:none;" d="M66.3333 10.6667C66.2778 10.7222 66.2222 11.7778 66.6667 11.3333C66.7223 11.2777 66.7777 10.2223 66.3333 10.6667z"/>
<path style="fill:#000000; stroke:none;" d="M67 10L68 11L67 10z"/>
<path style="fill:#383838; stroke:none;" d="M68 10L69 11L68 10z"/>
<path style="fill:#c0c0c0; stroke:none;" d="M69 10L70 11L69 10M155 10L156 11L155 10z"/>
<path style="fill:#3d3d3d; stroke:none;" d="M156 10L157 11L156 10z"/>
<path style="fill:#000000; stroke:none;" d="M157 10L158 11L157 10z"/>
<path style="fill:#676767; stroke:none;" d="M158.333 10.6667C158.278 10.7222 158.222 11.7778 158.667 11.3333C158.722 11.2777 158.778 10.2223 158.333 10.6667z"/>
<path style="fill:#7d7d7d; stroke:none;" d="M64.3333 11.6667C64.2778 11.7222 64.2222 12.7778 64.6667 12.3333C64.7223 12.2777 64.7777 11.2223 64.3333 11.6667z"/>
<path style="fill:#000000; stroke:none;" d="M65 11L66 12L65 11M159 11L160 12L159 11z"/>
<path style="fill:#7d7d7d; stroke:none;" d="M160.333 11.6667C160.278 11.7222 160.222 12.7778 160.667 12.3333C160.722 12.2777 160.778 11.2222 160.333 11.6667M62.3333 12.6667C62.2777 12.7223 62.2222 13.7777 62.6667 13.3333C62.7222 13.2778 62.7778 12.2222 62.3333 12.6667z"/>
<path style="fill:#000000; stroke:none;" d="M63 12L64 13L63 12M161 12L162 13L161 12z"/>
<path style="fill:#818181; stroke:none;" d="M162.333 12.6667C162.278 12.7222 162.222 13.7778 162.667 13.3333C162.722 13.2778 162.778 12.2222 162.333 12.6667z"/>
<path style="fill:#6f6f6f; stroke:none;" d="M60.3333 13.6667C60.2777 13.7223 60.2222 14.7778 60.6667 14.3333C60.7222 14.2778 60.7778 13.2222 60.3333 13.6667z"/>
<path style="fill:#000000; stroke:none;" d="M61 13L62 14L61 13M163 13L164 14L163 13z"/>
<path style="fill:#7d7d7d; stroke:none;" d="M164.333 13.6667C164.278 13.7222 164.222 14.7778 164.667 14.3333C164.722 14.2777 164.778 13.2222 164.333 13.6667z"/>
<path style="fill:#818181; stroke:none;" d="M58 14L59 15L58 14z"/>
<path style="fill:#000000; stroke:none;" d="M59 14L60 15L59 14M165 14L166 15L165 14z"/>
<path style="fill:#5a5a5a; stroke:none;" d="M166.333 14.6667C166.278 14.7222 166.222 15.7778 166.667 15.3333C166.722 15.2777 166.778 14.2223 166.333 14.6667z"/>
<path style="fill:#a8a8a8; stroke:none;" d="M56 15L57 16L56 15z"/>
<path style="fill:#000000; stroke:none;" d="M57 15L58 16L57 15z"/>
<path style="fill:#555555; stroke:none;" d="M58 15L59 16L58 15z"/>
<path style="fill:#000000; stroke:none;" d="M167 15L168 16L167 15z"/>
<path style="fill:#a8a8a8; stroke:none;" d="M168 15L169 16L168 15z"/>
<path style="fill:#cbcbcb; stroke:none;" d="M54 16L55 17L54 16z"/>
<path style="fill:#191919; stroke:none;" d="M55.6667 16.3333C55.2223 16.7778 56.2778 16.7222 56.3333 16.6667C56.7778 16.2222 55.7222 16.2778 55.6667 16.3333z"/>
<path style="fill:#cbcbcb; stroke:none;" d="M57 16L58 17L57 16M167 16L168 17L167 16z"/>
<path style="fill:#252525; stroke:none;" d="M168.667 16.3333C168.222 16.7778 169.278 16.7222 169.333 16.6667C169.778 16.2222 168.722 16.2778 168.667 16.3333z"/>
<path style="fill:#5a5a5a; stroke:none;" d="M53.3333 17.6667C53.2778 17.7222 53.2222 18.7778 53.6667 18.3333C53.7222 18.2778 53.7778 17.2222 53.3333 17.6667z"/>
<path style="fill:#000000; stroke:none;" d="M54 17L55 18L54 17z"/>
<path style="fill:#a1a1a1; stroke:none;" d="M55 17L56 18L55 17M169 17L170 18L169 17z"/>
<path style="fill:#000000; stroke:none;" d="M170 17L171 18L170 17z"/>
<path style="fill:#5a5a5a; stroke:none;" d="M171.333 17.6667C171.278 17.7222 171.222 18.7777 171.667 18.3333C171.722 18.2778 171.778 17.2223 171.333 17.6667z"/>
<path style="fill:#bababa; stroke:none;" d="M51 18L52 19L51 18z"/>
<path style="fill:#000000; stroke:none;" d="M52 18L51 20C52.2628 19.0286 52.3919 19.3062 52 18M172 18C172.545 19.6352 172.365 19.455 174 20C173.455 18.3648 173.635 18.5451 172 18z"/>
<path style="fill:#b5b5b5; stroke:none;" d="M173 18L174 19L173 18z"/>
<path style="fill:#6b6b6b; stroke:none;" d="M50.3333 19.6667C50.2777 19.7223 50.2222 20.7777 50.6667 20.3333C50.7222 20.2778 50.7778 19.2222 50.3333 19.6667z"/>
<path style="fill:#c8c8c8; stroke:none;" d="M52 19L53 20L52 19M172 19L173 20L172 19z"/>
<path style="fill:#6f6f6f; stroke:none;" d="M174.333 19.6667C174.278 19.7222 174.222 20.7778 174.667 20.3333C174.722 20.2777 174.778 19.2223 174.333 19.6667z"/>
<path style="fill:#c0c0c0; stroke:none;" d="M48 20C48.5451 21.6352 48.3648 21.4549 50 22C49.455 20.3649 49.6352 20.545 48 20z"/>
<path style="fill:#000000; stroke:none;" d="M49 20L50 21L49 20M175 20C175.545 21.6352 175.365 21.4549 177 22C176.455 20.3649 176.635 20.545 175 20z"/>
<path style="fill:#bababa; stroke:none;" d="M176 20L177 21L176 20z"/>
<path style="fill:#4e4e4e; stroke:none;" d="M47.3333 21.6667C47.2777 21.7223 47.2223 22.7777 47.6667 22.3333C47.7222 22.2778 47.7778 21.2222 47.3333 21.6667z"/>
<path style="fill:#000000; stroke:none;" d="M48 21L49 22L48 21z"/>
<path style="fill:#c0c0c0; stroke:none;" d="M175 21L176 22L175 21z"/>
<path style="fill:#4e4e4e; stroke:none;" d="M177.333 21.6667C177.278 21.7222 177.222 22.7778 177.667 22.3333C177.722 22.2777 177.778 21.2223 177.333 21.6667z"/>
<path style="fill:#0f0f0f; stroke:none;" d="M46 22L47 23L46 22z"/>
<path style="fill:#000000; stroke:none;" d="M178 22C179.103 23.4566 179.543 23.8966 181 25C179.897 23.5434 179.457 23.1034 178 22z"/>
<path style="fill:#aaaaaa; stroke:none;" d="M44 23L45 24L44 23z"/>
<path style="fill:#000000; stroke:none;" d="M45 23L46 24L45 23z"/>
<path style="fill:#9c9c9c; stroke:none;" d="M46 23L47 24L46 23M178 23L179 24L178 23z"/>
<path style="fill:#aaaaaa; stroke:none;" d="M180 23L181 24L180 23z"/>
<path style="fill:#6f6f6f; stroke:none;" d="M43 24L44 25L43 24z"/>
<path style="fill:#000000; stroke:none;" d="M44 24L45 25L44 24z"/>
<path style="fill:#6f6f6f; stroke:none;" d="M181 24L182 25L181 24z"/>
<path style="fill:#383838; stroke:none;" d="M42.6667 25.3333C42.2222 25.7778 43.2778 25.7222 43.3333 25.6667C43.7778 25.2222 42.7222 25.2778 42.6667 25.3333z"/>
<path style="fill:#252525; stroke:none;" d="M181.667 25.3333C181.222 25.7778 182.278 25.7222 182.333 25.6667C182.778 25.2222 181.722 25.2778 181.667 25.3333z"/>
<path style="fill:#000000; stroke:none;" d="M41 26L37 31C39.089 29.4443 40.4028 28.5116 41 26z"/>
<path style="fill:#7d7d7d; stroke:none;" d="M42 26L43 27L42 26M182 26L183 27L182 26z"/>
<path style="fill:#000000; stroke:none;" d="M183 26C184.549 28.1357 185.864 29.4511 188 31C186.451 28.8643 185.136 27.5489 183 26z"/>
<path style="fill:#b5b5b5; stroke:none;" d="M39 27L40 28L39 27z"/>
<path style="fill:#aaaaaa; stroke:none;" d="M41 27L42 28L41 27M183 27L184 28L183 27z"/>
<path style="fill:#b5b5b5; stroke:none;" d="M185 27L186 28L185 27z"/>
<path style="fill:#9c9c9c; stroke:none;" d="M38 28L39 29L38 28z"/>
<path style="fill:#cbcbcb; stroke:none;" d="M40 28L41 29L40 28M184 28L185 29L184 28z"/>
<path style="fill:#9c9c9c; stroke:none;" d="M186 28L187 29L186 28z"/>
<path style="fill:#818181; stroke:none;" d="M37 29L38 30L37 29M187 29L188 30L187 29z"/>
<path style="fill:#6b6b6b; stroke:none;" d="M36 30L37 31L36 30M188 30L189 31L188 30z"/>
<path style="fill:#464646; stroke:none;" d="M31 37C33.5075 35.2048 35.2048 33.5075 37 31C33.8959 32.4821 32.4821 33.8959 31 37z"/>
<path style="fill:#252525; stroke:none;" d="M188 31L189 32L188 31z"/>
<path style="fill:#464646; stroke:none;" d="M189 31C190.482 34.104 191.896 35.5179 195 37C193.205 34.4925 191.508 32.7952 189 31z"/>
<path style="fill:#6b6b6b; stroke:none;" d="M30 36L31 37L30 36z"/>
<path style="fill:#818181; stroke:none;" d="M29 37L30 38L29 37z"/>
<path style="fill:#000000; stroke:none;" d="M30 37L31 38L30 37z"/>
<path style="fill:#0f0f0f; stroke:none;" d="M194 37L195 38L194 37z"/>
<path style="fill:#818181; stroke:none;" d="M195 37L196 38L195 37z"/>
<path style="fill:#9c9c9c; stroke:none;" d="M28 38L29 39L28 38z"/>
<path style="fill:#000000; stroke:none;" d="M29 38L30 39L29 38M195 38C196.33 39.7525 197.247 40.6697 199 42C197.67 40.2475 196.752 39.3302 195 38z"/>
<path style="fill:#9c9c9c; stroke:none;" d="M196 38L197 39L196 38z"/>
<path style="fill:#b5b5b5; stroke:none;" d="M27 39L28 40L27 39z"/>
<path style="fill:#000000; stroke:none;" d="M28 39C26.8137 40.1863 26.4721 40.5838 26 42C27.5481 40.7383 27.808 40.8061 28 39z"/>
<path style="fill:#b5b5b5; stroke:none;" d="M197 39L198 40L197 39z"/>
<path style="fill:#cbcbcb; stroke:none;" d="M28 40L29 41L28 40M196 40L197 41L196 40z"/>
<path style="fill:#aaaaaa; stroke:none;" d="M27 41L28 42L27 41M197 41L198 42L197 41z"/>
<path style="fill:#383838; stroke:none;" d="M25.3333 42.6667C25.2778 42.7222 25.2222 43.7778 25.6667 43.3333C25.7222 43.2778 25.7778 42.2222 25.3333 42.6667z"/>
<path style="fill:#7d7d7d; stroke:none;" d="M26 42L27 43L26 42M198 42L199 43L198 42z"/>
<path style="fill:#383838; stroke:none;" d="M199.333 42.6667C199.278 42.7222 199.222 43.7778 199.667 43.3333C199.722 43.2778 199.778 42.2223 199.333 42.6667z"/>
<path style="fill:#6f6f6f; stroke:none;" d="M24 43L25 44L24 43M200 43L201 44L200 43z"/>
<path style="fill:#aaaaaa; stroke:none;" d="M23 44L24 45L23 44z"/>
<path style="fill:#000000; stroke:none;" d="M24 44L25 45L24 44M200 44C201.103 45.4566 201.543 45.8966 203 47C201.897 45.5434 201.457 45.1034 200 44z"/>
<path style="fill:#aaaaaa; stroke:none;" d="M201 44L202 45L201 44z"/>
<path style="fill:#000000; stroke:none;" d="M23 45L22 47C23.2628 46.0287 23.3919 46.3063 23 45z"/>
<path style="fill:#9c9c9c; stroke:none;" d="M23 46L24 47L23 46M201 46L202 47L201 46z"/>
<path style="fill:#4e4e4e; stroke:none;" d="M21.6667 47.3333C21.2222 47.7778 22.2778 47.7222 22.3333 47.6667C22.7778 47.2222 21.7222 47.2778 21.6667 47.3333z"/>
<path style="fill:#6f6f6f; stroke:none;" d="M202.667 47.3333C202.222 47.7778 203.278 47.7222 203.333 47.6667C203.778 47.2222 202.722 47.2778 202.667 47.3333z"/>
<path style="fill:#bababa; stroke:none;" d="M20 48L21 49L20 48z"/>
<path style="fill:#000000; stroke:none;" d="M21 48L20 50C21.2627 49.0287 21.3919 49.3062 21 48M203 48C203.545 49.6352 203.365 49.455 205 50C204.455 48.3648 204.635 48.5451 203 48z"/>
<path style="fill:#c0c0c0; stroke:none;" d="M204 48L205 49L204 48M21 49L22 50L21 49M203 49L204 50L203 49z"/>
<path style="fill:#6b6b6b; stroke:none;" d="M19.6667 50.3333C19.2222 50.7778 20.2778 50.7222 20.3333 50.6667C20.7778 50.2222 19.7222 50.2778 19.6667 50.3333z"/>
<path style="fill:#555555; stroke:none;" d="M204.667 50.3333C204.222 50.7778 205.278 50.7222 205.333 50.6667C205.778 50.2222 204.722 50.2777 204.667 50.3333z"/>
<path style="fill:#bababa; stroke:none;" d="M18 51L19 52L18 51z"/>
<path style="fill:#000000; stroke:none;" d="M19 51L18 53C19.2627 52.0287 19.3919 52.3063 19 51M205 51C205.545 52.6352 205.365 52.4549 207 53C206.455 51.3649 206.635 51.5451 205 51z"/>
<path style="fill:#bababa; stroke:none;" d="M206 51L207 52L206 51z"/>
<path style="fill:#c8c8c8; stroke:none;" d="M19 52L20 53L19 52z"/>
<path style="fill:#c0c0c0; stroke:none;" d="M205 52L206 53L205 52z"/>
<path style="fill:#5a5a5a; stroke:none;" d="M17.6667 53.3333C17.2222 53.7778 18.2778 53.7222 18.3333 53.6667C18.7778 53.2222 17.7222 53.2778 17.6667 53.3333z"/>
<path style="fill:#6f6f6f; stroke:none;" d="M206.667 53.3333C206.222 53.7778 207.278 53.7222 207.333 53.6667C207.778 53.2222 206.722 53.2778 206.667 53.3333z"/>
<path style="fill:#cbcbcb; stroke:none;" d="M16 54L17 55L16 54z"/>
<path style="fill:#000000; stroke:none;" d="M17 54L18 55L17 54M207 54L208 55L207 54z"/>
<path style="fill:#191919; stroke:none;" d="M16.3333 55.6667C16.2778 55.7222 16.2223 56.7777 16.6667 56.3333C16.7222 56.2778 16.7778 55.2222 16.3333 55.6667z"/>
<path style="fill:#a1a1a1; stroke:none;" d="M17 55L18 56L17 55M207 55L208 56L207 55z"/>
<path style="fill:#0f0f0f; stroke:none;" d="M208.333 55.6667C208.278 55.7222 208.222 56.7778 208.667 56.3333C208.722 56.2778 208.778 55.2223 208.333 55.6667z"/>
<path style="fill:#a8a8a8; stroke:none;" d="M15 56L16 57L15 56M209 56L210 57L209 56z"/>
<path style="fill:#000000; stroke:none;" d="M15 57L16 58L15 57z"/>
<path style="fill:#cbcbcb; stroke:none;" d="M16 57L17 58L16 57M208 57L209 58L208 57z"/>
<path style="fill:#000000; stroke:none;" d="M209 57L210 58L209 57z"/>
<path style="fill:#5a5a5a; stroke:none;" d="M14.6667 58.3333C14.2222 58.7778 15.2778 58.7222 15.3333 58.6667C15.7778 58.2222 14.7222 58.2778 14.6667 58.3333z"/>
<path style="fill:#555555; stroke:none;" d="M209 58L210 59L209 58z"/>
<path style="fill:#818181; stroke:none;" d="M210 58L211 59L210 58z"/>
<path style="fill:#000000; stroke:none;" d="M14 59L15 60L14 59M210 59L211 60L210 59z"/>
<path style="fill:#6f6f6f; stroke:none;" d="M13.6667 60.3333C13.2222 60.7778 14.2778 60.7222 14.3333 60.6667C14.7778 60.2222 13.7222 60.2778 13.6667 60.3333z"/>
<path style="fill:#676767; stroke:none;" d="M210.667 60.3333C210.222 60.7778 211.278 60.7222 211.333 60.6667C211.778 60.2222 210.722 60.2777 210.667 60.3333z"/>
<path style="fill:#000000; stroke:none;" d="M13 61L14 62L13 61M211 61L212 62L211 61z"/>
<path style="fill:#7d7d7d; stroke:none;" d="M12.6667 62.3333C12.2222 62.7778 13.2778 62.7222 13.3333 62.6667C13.7778 62.2222 12.7222 62.2778 12.6667 62.3333z"/>
<path style="fill:#676767; stroke:none;" d="M211.667 62.3333C211.222 62.7778 212.278 62.7222 212.333 62.6667C212.778 62.2222 211.722 62.2778 211.667 62.3333z"/>
<path style="fill:#000000; stroke:none;" d="M12 63L13 64L12 63M212 63L213 64L212 63z"/>
<path style="fill:#7d7d7d; stroke:none;" d="M11.6667 64.3333C11.2222 64.7778 12.2778 64.7222 12.3333 64.6667C12.7777 64.2222 11.7223 64.2777 11.6667 64.3333z"/>
<path style="fill:#6b6b6b; stroke:none;" d="M212.667 64.3333C212.222 64.7778 213.278 64.7222 213.333 64.6667C213.778 64.2222 212.722 64.2778 212.667 64.3333z"/>
<path style="fill:#000000; stroke:none;" d="M11 65L12 66L11 65M213 65L214 66L213 65z"/>
<path style="fill:#676767; stroke:none;" d="M10.6667 66.3333C10.2222 66.7778 11.2778 66.7222 11.3333 66.6667C11.7778 66.2222 10.7222 66.2778 10.6667 66.3333z"/>
<path style="fill:#818181; stroke:none;" d="M213.667 66.3333C213.222 66.7778 214.278 66.7222 214.333 66.6667C214.778 66.2222 213.722 66.2777 213.667 66.3333z"/>
<path style="fill:#000000; stroke:none;" d="M10 67L11 68L10 67M214 67L215 68L214 67z"/>
<path style="fill:#a1a1a1; stroke:none;" d="M9 68L10 69L9 68z"/>
<path style="fill:#3d3d3d; stroke:none;" d="M10 68L11 69L10 68z"/>
<path style="fill:#383838; stroke:none;" d="M214 68L215 69L214 68z"/>
<path style="fill:#a1a1a1; stroke:none;" d="M215 68L216 69L215 68z"/>
<path style="fill:#000000; stroke:none;" d="M9.33333 69.6667C9.27779 69.7222 9.22223 70.7778 9.66667 70.3333C9.72224 70.2778 9.77779 69.2222 9.33333 69.6667z"/>
<path style="fill:#c0c0c0; stroke:none;" d="M10 69L11 70L10 69M214 69L215 70L214 69z"/>
<path style="fill:#000000; stroke:none;" d="M215.333 69.6667C215.278 69.7222 215.222 70.7778 215.667 70.3333C215.722 70.2778 215.778 69.2222 215.333 69.6667z"/>
<path style="fill:#cbcbcb; stroke:none;" d="M8 70L9 71L8 70M216 70L217 71L216 70z"/>
<path style="fill:#5a5a5a; stroke:none;" d="M8 71L9 72L8 71z"/>
<path style="fill:#8f8f8f; stroke:none;" d="M9 71L10 72L9 71M215 71L216 72L215 71z"/>
<path style="fill:#5a5a5a; stroke:none;" d="M216 71L217 72L216 71z"/>
<path style="fill:#000000; stroke:none;" d="M8 72L9 73L8 72M216 72L217 73L216 72z"/>
<path style="fill:#a1a1a1; stroke:none;" d="M7 73L8 74L7 73z"/>
<path style="fill:#4e4e4e; stroke:none;" d="M8 73L9 74L8 73z"/>
<path style="fill:#464646; stroke:none;" d="M216 73L217 74L216 73z"/>
<path style="fill:#a1a1a1; stroke:none;" d="M217 73L218 74L217 73z"/>
<path style="fill:#000000; stroke:none;" d="M7.33333 74.6667C7.27775 74.7222 7.22224 75.7778 7.66667 75.3333C7.72218 75.2778 7.7778 74.2222 7.33333 74.6667z"/>
<path style="fill:#b5b5b5; stroke:none;" d="M8 74L9 75L8 74M216 74L217 75L216 74z"/>
<path style="fill:#000000; stroke:none;" d="M217.333 74.6667C217.278 74.7222 217.222 75.7778 217.667 75.3333C217.722 75.2778 217.778 74.2222 217.333 74.6667z"/>
<path style="fill:#676767; stroke:none;" d="M6.66667 76.3333C6.22223 76.7778 7.27778 76.7222 7.33333 76.6667C7.7778 76.2222 6.72222 76.2778 6.66667 76.3333z"/>
<path style="fill:#616161; stroke:none;" d="M217 76L218 77L217 76z"/>
<path style="fill:#8f8f8f; stroke:none;" d="M218 76L219 77L218 76z"/>
<path style="fill:#000000; stroke:none;" d="M6.33333 77.6667C6.27773 77.7223 6.22225 78.7777 6.66667 78.3333C6.7222 78.2778 6.77779 77.2222 6.33333 77.6667z"/>
<path style="fill:#c0c0c0; stroke:none;" d="M7 77L8 78L7 77M217 77L218 78L217 77z"/>
<path style="fill:#000000; stroke:none;" d="M218.333 77.6667C218.278 77.7222 218.222 78.7778 218.667 78.3333C218.722 78.2777 218.778 77.2223 218.333 77.6667z"/>
<path style="fill:#9c9c9c; stroke:none;" d="M5 79L6 80L5 79z"/>
<path style="fill:#616161; stroke:none;" d="M6 79L7 80L6 79M218 79L219 80L218 79z"/>
<path style="fill:#9c9c9c; stroke:none;" d="M219 79L220 80L219 79z"/>
<path style="fill:#3d3d3d; stroke:none;" d="M5 80L6 81L5 80z"/>
<path style="fill:#b5b5b5; stroke:none;" d="M6 80L7 81L6 80M218 80L219 81L218 80z"/>
<path style="fill:#3d3d3d; stroke:none;" d="M219 80L220 81L219 80z"/>
<path style="fill:#252525; stroke:none;" d="M5.33333 81.6667C5.27776 81.7222 5.22221 82.7778 5.66667 82.3333C5.7222 82.2778 5.77779 81.2222 5.33333 81.6667z"/>
<path style="fill:#1f1f1f; stroke:none;" d="M219.333 81.6667C219.278 81.7222 219.222 82.7778 219.667 82.3333C219.722 82.2777 219.778 81.2223 219.333 81.6667z"/>
<path style="fill:#bababa; stroke:none;" d="M4 82L5 83L4 82M220 82L221 83L220 82z"/>
<path style="fill:#8f8f8f; stroke:none;" d="M4.66667 83.3333C4.22223 83.7778 5.27778 83.7222 5.33333 83.6667C5.7778 83.2222 4.72222 83.2778 4.66667 83.3333z"/>
<path style="fill:#6b6b6b; stroke:none;" d="M219.667 83.3333C219.222 83.7778 220.278 83.7222 220.333 83.6667C220.778 83.2222 219.722 83.2778 219.667 83.3333z"/>
<path style="fill:#000000; stroke:none;" d="M4.33333 84.6667C4.27776 84.7222 4.22221 85.7778 4.66667 85.3333C4.7222 85.2778 4.77779 84.2222 4.33333 84.6667M220.333 84.6667C220.278 84.7222 220.222 85.7778 220.667 85.3333C220.722 85.2778 220.778 84.2222 220.333 84.6667z"/>
<path style="fill:#b5b5b5; stroke:none;" d="M3 86L4 87L3 86z"/>
<path style="fill:#3d3d3d; stroke:none;" d="M4 86L5 87L4 86z"/>
<path style="fill:#383838; stroke:none;" d="M220 86L221 87L220 86z"/>
<path style="fill:#b5b5b5; stroke:none;" d="M221 86L222 87L221 86z"/>
<path style="fill:#8f8f8f; stroke:none;" d="M3.66667 87.3333C3.2222 87.7778 4.27778 87.7222 4.33333 87.6667C4.77776 87.2222 3.72224 87.2778 3.66667 87.3333z"/>
<path style="fill:#6f6f6f; stroke:none;" d="M220.667 87.3333C220.222 87.7778 221.278 87.7222 221.333 87.6667C221.778 87.2222 220.722 87.2777 220.667 87.3333z"/>
<path style="fill:#000000; stroke:none;" d="M3 88L3 91C3.69611 89.4463 3.69611 89.5537 3 88M221 88L221 91C221.696 89.4463 221.696 89.5537 221 88z"/>
<path style="fill:#a1a1a1; stroke:none;" d="M2.33333 90.6667C2.27778 90.7222 2.22222 91.7778 2.66667 91.3333C2.72222 91.2778 2.77778 90.2222 2.33333 90.6667M222.333 90.6667C222.278 90.7222 222.222 91.7778 222.667 91.3333C222.722 91.2777 222.778 90.2222 222.333 90.6667z"/>
<path style="fill:#5a5a5a; stroke:none;" d="M3 91L4 92L3 91M221 91L222 92L221 91z"/>
<path style="fill:#676767; stroke:none;" d="M2 92L3 93L2 92z"/>
<path style="fill:#c0c0c0; stroke:none;" d="M3.33333 92.6667C3.27776 92.7222 3.22225 93.7777 3.66667 93.3333C3.72221 93.2778 3.7778 92.2222 3.33333 92.6667M221.333 92.6667C221.278 92.7222 221.222 93.7778 221.667 93.3333C221.722 93.2778 221.778 92.2222 221.333 92.6667z"/>
<path style="fill:#676767; stroke:none;" d="M222 92L223 93L222 92z"/>
<path style="fill:#000000; stroke:none;" d="M2 93L2 96C2.6961 94.4463 2.6961 94.5537 2 93M222 93L222 96C222.696 94.4463 222.696 94.5537 222 93z"/>
<path style="fill:#cbcbcb; stroke:none;" d="M1.33333 95.6667C1.2778 95.7222 1.22221 96.7778 1.66667 96.3333C1.72224 96.2778 1.77779 95.2222 1.33333 95.6667M223.333 95.6667C223.278 95.7222 223.222 96.7778 223.667 96.3333C223.722 96.2778 223.778 95.2223 223.333 95.6667z"/>
<path style="fill:#555555; stroke:none;" d="M2.33333 96.6667C2.27778 96.7222 2.22223 97.7778 2.66667 97.3333C2.72224 97.2778 2.77776 96.2222 2.33333 96.6667M222.333 96.6667C222.278 96.7222 222.222 97.7778 222.667 97.3333C222.722 97.2778 222.778 96.2222 222.333 96.6667z"/>
<path style="fill:#888888; stroke:none;" d="M1 97L1 99L3 99C2.45495 97.3648 2.63516 97.5451 1 97M223 97C223.031 98.8318 222.92 98.5587 224 100C223.749 98.5484 223.685 98.2484 223 97z"/>
<path style="fill:#5a5a5a; stroke:none;" d="M1 99L2 100L1 99z"/>
<path style="fill:#bababa; stroke:none;" d="M2 99L2 102C2.6961 100.446 2.69609 100.554 2 99M222.333 99.6667C222.278 99.7223 222.222 100.778 222.667 100.333C222.722 100.278 222.778 99.2222 222.333 99.6667z"/>
<path style="fill:#000000; stroke:none;" d="M1 100L1 106C1.9511 103.715 1.95111 102.285 1 100M223 100L223 106C223.951 103.715 223.951 102.285 223 100z"/>
<path style="fill:#cbcbcb; stroke:none;" d="M0 103L0 109C0.951104 106.715 0.951107 105.285 0 103M224 103L224 109C224.951 106.715 224.951 105.285 224 103z"/>
<path style="fill:#3d3d3d; stroke:none;" d="M1.33333 106.667C1.27778 106.722 1.22223 107.778 1.66667 107.333C1.72222 107.278 1.77779 106.222 1.33333 106.667M223.333 106.667C223.278 106.722 223.222 107.778 223.667 107.333C223.722 107.278 223.778 106.222 223.333 106.667z"/>
<path style="fill:#555555; stroke:none;" d="M1 108L1 118C2.34572 114.793 2.34572 111.207 1 108M223 108L223 118C224.346 114.793 224.346 111.207 223 108z"/>
<path style="fill:#aaaaaa; stroke:none;" d="M0 109L0 117C1.16138 114.23 1.16138 111.77 0 109M224 109L224 117C225.161 114.23 225.161 111.77 224 109z"/>
<path style="fill:#e2e2e2; stroke:none;" d="M0 117L0 122C0.829892 119.97 0.829892 119.03 0 117M224 117L224 122C224.83 119.969 224.83 119.03 224 117z"/>
<path style="fill:#000000; stroke:none;" d="M1 118L1 125C2.05946 122.466 2.05946 120.534 1 118M223 118L223 125C224.059 122.466 224.059 120.534 223 118z"/>
<path style="fill:#ffffff; stroke:none;" d="M0 122L0 225L103 225C99.6126 223.565 95.632 223.557 92 222.789C85.2146 221.355 78.4797 219.416 72 216.935C47.0203 207.372 25.4857 187.687 13.2585 164C8.95588 155.665 5.65284 147.109 3.375 138C2.08933 132.859 2.03236 126.799 0 122M224 122C223.89 135.233 219.114 149.265 213.247 161C196.709 194.075 160.608 223.68 122 224C130.357 227.507 143.94 225 153 225L225 225L225 153C225 143.94 227.507 130.357 224 122z"/>
<path style="fill:#bababa; stroke:none;" d="M2 123L2 126C2.69611 124.446 2.6961 124.554 2 123M222 123L222 126C222.696 124.446 222.696 124.554 222 123z"/>
<path style="fill:#888888; stroke:none;" d="M1 125L1 128L3 127C2.45495 125.365 2.63516 125.545 1 125M223 125C223.031 126.832 222.92 126.559 224 128C223.749 126.548 223.685 126.248 223 125z"/>
<path style="fill:#2b2b2b; stroke:none;" d="M2.33333 127.667C2.27776 127.722 2.22224 128.778 2.66667 128.333C2.7222 128.278 2.77779 127.222 2.33333 127.667M222.333 127.667C222.278 127.722 222.222 128.778 222.667 128.333C222.722 128.278 222.778 127.222 222.333 127.667z"/>
<path style="fill:#e2e2e2; stroke:none;" d="M1.33333 128.667C1.27778 128.722 1.22223 129.778 1.66667 129.333C1.72222 129.278 1.77779 128.222 1.33333 128.667M223.333 128.667C223.278 128.722 223.222 129.778 223.667 129.333C223.722 129.278 223.778 128.222 223.333 128.667z"/>
<path style="fill:#000000; stroke:none;" d="M2 129L2 132C2.6961 130.446 2.6961 130.554 2 129M222 129L222 132C222.696 130.446 222.696 130.554 222 129z"/>
<path style="fill:#9c9c9c; stroke:none;" d="M3.33333 131.667C3.27777 131.722 3.22223 132.778 3.66667 132.333C3.7222 132.278 3.77779 131.222 3.33333 131.667M221.333 131.667C221.278 131.722 221.222 132.778 221.667 132.333C221.722 132.278 221.778 131.222 221.333 131.667z"/>
<path style="fill:#676767; stroke:none;" d="M2 132L3 133L2 132z"/>
<path style="fill:#6b6b6b; stroke:none;" d="M222 132L223 133L222 132z"/>
<path style="fill:#cbcbcb; stroke:none;" d="M2.33333 133.667C2.27777 133.722 2.22223 134.778 2.66667 134.333C2.72221 134.278 2.77778 133.222 2.33333 133.667z"/>
<path style="fill:#5a5a5a; stroke:none;" d="M3 133L4 134L3 133M221 133L222 134L221 133z"/>
<path style="fill:#a1a1a1; stroke:none;" d="M222 133L223 134L222 133z"/>
<path style="fill:#000000; stroke:none;" d="M3 134L3 137C3.69611 135.446 3.6961 135.554 3 134M221 134L221 137C221.696 135.446 221.696 135.554 221 134z"/>
<path style="fill:#c8c8c8; stroke:none;" d="M4 136L5 137L4 136M220 136L221 137L220 136z"/>
<path style="fill:#8f8f8f; stroke:none;" d="M3 137L3 139C4.63516 138.455 4.45495 138.635 5 137L3 137z"/>
<path style="fill:#6f6f6f; stroke:none;" d="M220.667 137.333C220.222 137.778 221.278 137.722 221.333 137.667C221.778 137.222 220.722 137.278 220.667 137.333z"/>
<path style="fill:#383838; stroke:none;" d="M4 138L5 139L4 138M220 138L221 139L220 138z"/>
<path style="fill:#b5b5b5; stroke:none;" d="M221 138L222 139L221 138z"/>
<path style="fill:#000000; stroke:none;" d="M4.33333 139.667C4.27779 139.722 4.22222 140.778 4.66667 140.333C4.72224 140.278 4.77776 139.222 4.33333 139.667z"/>
<path style="fill:#0f0f0f; stroke:none;" d="M220.333 139.667C220.278 139.722 220.222 140.778 220.667 140.333C220.722 140.278 220.778 139.222 220.333 139.667z"/>
<path style="fill:#8f8f8f; stroke:none;" d="M4.66667 141.333C4.22222 141.778 5.27777 141.722 5.33333 141.667C5.77777 141.222 4.72222 141.278 4.66667 141.333z"/>
<path style="fill:#6f6f6f; stroke:none;" d="M219.667 141.333C219.222 141.778 220.278 141.722 220.333 141.667C220.778 141.222 219.722 141.278 219.667 141.333z"/>
<path style="fill:#bababa; stroke:none;" d="M4 142L5 143L4 142z"/>
<path style="fill:#000000; stroke:none;" d="M5.33333 142.667C5.27779 142.722 5.22222 143.778 5.66667 143.333C5.72223 143.278 5.77778 142.222 5.33333 142.667M219.333 142.667C219.278 142.722 219.222 143.778 219.667 143.333C219.722 143.278 219.778 142.222 219.333 142.667z"/>
<path style="fill:#bababa; stroke:none;" d="M220 142L221 143L220 142z"/>
<path style="fill:#3d3d3d; stroke:none;" d="M5 144L6 145L5 144z"/>
<path style="fill:#b5b5b5; stroke:none;" d="M6 144L7 145L6 144M218 144L219 145L218 144z"/>
<path style="fill:#3d3d3d; stroke:none;" d="M219 144L220 145L219 144z"/>
<path style="fill:#9c9c9c; stroke:none;" d="M5 145L6 146L5 145z"/>
<path style="fill:#616161; stroke:none;" d="M6 145L7 146L6 145M218 145L219 146L218 145z"/>
<path style="fill:#9c9c9c; stroke:none;" d="M219 145L220 146L219 145z"/>
<path style="fill:#000000; stroke:none;" d="M6.33333 146.667C6.27779 146.722 6.22222 147.778 6.66667 147.333C6.72224 147.278 6.77776 146.222 6.33333 146.667z"/>
<path style="fill:#0f0f0f; stroke:none;" d="M218.333 146.667C218.278 146.722 218.222 147.778 218.667 147.333C218.722 147.278 218.778 146.222 218.333 146.667z"/>
<path style="fill:#c0c0c0; stroke:none;" d="M7 147L8 148L7 147M217 147L218 148L217 147z"/>
<path style="fill:#8f8f8f; stroke:none;" d="M6 148L7 149L6 148z"/>
<path style="fill:#616161; stroke:none;" d="M7 148L8 149L7 148M217 148L218 149L217 148z"/>
<path style="fill:#8f8f8f; stroke:none;" d="M218 148L219 149L218 148z"/>
<path style="fill:#1f1f1f; stroke:none;" d="M7.33333 149.667C7.27779 149.722 7.22222 150.778 7.66667 150.333C7.72224 150.278 7.77777 149.222 7.33333 149.667M217.333 149.667C217.278 149.722 217.222 150.778 217.667 150.333C217.722 150.278 217.778 149.222 217.333 149.667z"/>
<path style="fill:#b5b5b5; stroke:none;" d="M8 150L9 151L8 150M216 150L217 151L216 150z"/>
<path style="fill:#a1a1a1; stroke:none;" d="M7 151L8 152L7 151z"/>
<path style="fill:#464646; stroke:none;" d="M8 151L9 152L8 151M216 151L217 152L216 151z"/>
<path style="fill:#a1a1a1; stroke:none;" d="M217 151L218 152L217 151z"/>
<path style="fill:#000000; stroke:none;" d="M8 152L9 153L8 152M216 152L217 153L216 152z"/>
<path style="fill:#5a5a5a; stroke:none;" d="M8 153L9 154L8 153z"/>
<path style="fill:#8f8f8f; stroke:none;" d="M9 153L10 154L9 153M215 153L216 154L215 153z"/>
<path style="fill:#5a5a5a; stroke:none;" d="M216 153L217 154L216 153z"/>
<path style="fill:#cbcbcb; stroke:none;" d="M8 154L9 155L8 154z"/>
<path style="fill:#0f0f0f; stroke:none;" d="M9.33333 154.667C9.27779 154.722 9.22221 155.778 9.66667 155.333C9.72223 155.278 9.77778 154.222 9.33333 154.667M215.333 154.667C215.278 154.722 215.222 155.778 215.667 155.333C215.722 155.278 215.778 154.222 215.333 154.667z"/>
<path style="fill:#cbcbcb; stroke:none;" d="M216 154L217 155L216 154z"/>
<path style="fill:#c0c0c0; stroke:none;" d="M10 155L11 156L10 155M214 155L215 156L214 155z"/>
<path style="fill:#a1a1a1; stroke:none;" d="M9 156L10 157L9 156z"/>
<path style="fill:#383838; stroke:none;" d="M10 156L11 157L10 156M214 156L215 157L214 156z"/>
<path style="fill:#a1a1a1; stroke:none;" d="M215 156L216 157L215 156z"/>
<path style="fill:#000000; stroke:none;" d="M10 157L11 158L10 157M214 157L215 158L214 157z"/>
<path style="fill:#676767; stroke:none;" d="M10.6667 158.333C10.2222 158.778 11.2778 158.722 11.3333 158.667C11.7778 158.222 10.7222 158.278 10.6667 158.333z"/>
<path style="fill:#818181; stroke:none;" d="M213.667 158.333C213.222 158.778 214.278 158.722 214.333 158.667C214.778 158.222 213.722 158.278 213.667 158.333z"/>
<path style="fill:#000000; stroke:none;" d="M11 159L12 160L11 159M213 159L214 160L213 159z"/>
<path style="fill:#7d7d7d; stroke:none;" d="M11.6667 160.333C11.2222 160.778 12.2778 160.722 12.3333 160.667C12.7778 160.222 11.7222 160.278 11.6667 160.333z"/>
<path style="fill:#6b6b6b; stroke:none;" d="M212.667 160.333C212.222 160.778 213.278 160.722 213.333 160.667C213.778 160.222 212.722 160.278 212.667 160.333z"/>
<path style="fill:#000000; stroke:none;" d="M12 161L13 162L12 161M212 161L213 162L212 161z"/>
<path style="fill:#7d7d7d; stroke:none;" d="M12.6667 162.333C12.2222 162.778 13.2778 162.722 13.3333 162.667C13.7778 162.222 12.7222 162.278 12.6667 162.333z"/>
<path style="fill:#676767; stroke:none;" d="M211.667 162.333C211.222 162.778 212.278 162.722 212.333 162.667C212.778 162.222 211.722 162.278 211.667 162.333z"/>
<path style="fill:#000000; stroke:none;" d="M13 163L14 164L13 163M211 163L212 164L211 163z"/>
<path style="fill:#6f6f6f; stroke:none;" d="M13.6667 164.333C13.2222 164.778 14.2778 164.722 14.3333 164.667C14.7778 164.222 13.7222 164.278 13.6667 164.333z"/>
<path style="fill:#6b6b6b; stroke:none;" d="M210.667 164.333C210.222 164.778 211.278 164.722 211.333 164.667C211.778 164.222 210.722 164.278 210.667 164.333z"/>
<path style="fill:#000000; stroke:none;" d="M14 165L15 166L14 165M210 165L211 166L210 165z"/>
<path style="fill:#818181; stroke:none;" d="M14 166L15 167L14 166z"/>
<path style="fill:#555555; stroke:none;" d="M15 166L16 167L15 166M209 166L210 167L209 166z"/>
<path style="fill:#818181; stroke:none;" d="M210 166L211 167L210 166z"/>
<path style="fill:#000000; stroke:none;" d="M15 167L16 168L15 167z"/>
<path style="fill:#cbcbcb; stroke:none;" d="M16 167L17 168L16 167M208 167L209 168L208 167z"/>
<path style="fill:#000000; stroke:none;" d="M209 167L210 168L209 167z"/>
<path style="fill:#a8a8a8; stroke:none;" d="M15 168L16 169L15 168z"/>
<path style="fill:#252525; stroke:none;" d="M16.3333 168.667C16.2778 168.722 16.2222 169.778 16.6667 169.333C16.7222 169.278 16.7778 168.222 16.3333 168.667z"/>
<path style="fill:#2b2b2b; stroke:none;" d="M208.333 168.667C208.278 168.722 208.222 169.778 208.667 169.333C208.722 169.278 208.778 168.222 208.333 168.667z"/>
<path style="fill:#aaaaaa; stroke:none;" d="M209 168L210 169L209 168z"/>
<path style="fill:#a1a1a1; stroke:none;" d="M17 169L18 170L17 169M207 169L208 170L207 169z"/>
<path style="fill:#000000; stroke:none;" d="M17 170L18 171L17 170M207 170L208 171L207 170z"/>
<path style="fill:#5a5a5a; stroke:none;" d="M17.6667 171.333C17.2222 171.778 18.2778 171.722 18.3333 171.667C18.7778 171.222 17.7222 171.278 17.6667 171.333z"/>
<path style="fill:#6f6f6f; stroke:none;" d="M206.667 171.333C206.222 171.778 207.278 171.722 207.333 171.667C207.778 171.222 206.722 171.278 206.667 171.333z"/>
<path style="fill:#000000; stroke:none;" d="M18 172C18.5451 173.635 18.3648 173.455 20 174C19.4549 172.365 19.6352 172.545 18 172z"/>
<path style="fill:#c8c8c8; stroke:none;" d="M19 172L20 173L19 172z"/>
<path style="fill:#c0c0c0; stroke:none;" d="M205 172L206 173L205 172z"/>
<path style="fill:#000000; stroke:none;" d="M206 172L205 174C206.263 173.029 206.392 173.306 206 172z"/>
<path style="fill:#bababa; stroke:none;" d="M18 173L19 174L18 173M206 173L207 174L206 173z"/>
<path style="fill:#6b6b6b; stroke:none;" d="M19.6667 174.333C19.2222 174.778 20.2778 174.722 20.3333 174.667C20.7778 174.222 19.7222 174.278 19.6667 174.333z"/>
<path style="fill:#555555; stroke:none;" d="M204.667 174.333C204.222 174.778 205.278 174.722 205.333 174.667C205.778 174.222 204.722 174.278 204.667 174.333z"/>
<path style="fill:#000000; stroke:none;" d="M20 175C20.5451 176.635 20.3648 176.455 22 177C21.455 175.365 21.6352 175.545 20 175z"/>
<path style="fill:#c0c0c0; stroke:none;" d="M21 175L22 176L21 175M203 175C203.545 176.635 203.365 176.455 205 177C204.455 175.365 204.635 175.545 203 175z"/>
<path style="fill:#000000; stroke:none;" d="M204 175L205 176L204 175z"/>
<path style="fill:#c0c0c0; stroke:none;" d="M20 176L21 177L20 176z"/>
<path style="fill:#000000; stroke:none;" d="M203 176L204 177L203 176z"/>
<path style="fill:#4e4e4e; stroke:none;" d="M21.6667 177.333C21.2222 177.778 22.2778 177.722 22.3333 177.667C22.7778 177.222 21.7222 177.278 21.6667 177.333z"/>
<path style="fill:#6f6f6f; stroke:none;" d="M202.667 177.333C202.222 177.778 203.278 177.722 203.333 177.667C203.778 177.222 202.722 177.278 202.667 177.333z"/>
<path style="fill:#000000; stroke:none;" d="M22 178C23.1034 179.457 23.5434 179.897 25 181C23.8966 179.543 23.4566 179.103 22 178z"/>
<path style="fill:#9c9c9c; stroke:none;" d="M23 178L24 179L23 178M201 178L202 179L201 178z"/>
<path style="fill:#0f0f0f; stroke:none;" d="M202 178L203 179L202 178z"/>
<path style="fill:#000000; stroke:none;" d="M201 179L200 181C201.263 180.029 201.392 180.306 201 179z"/>
<path style="fill:#aaaaaa; stroke:none;" d="M23 180L24 181L23 180z"/>
<path style="fill:#b5b5b5; stroke:none;" d="M201 180L202 181L201 180z"/>
<path style="fill:#6f6f6f; stroke:none;" d="M24 181L25 182L24 181z"/>
<path style="fill:#2b2b2b; stroke:none;" d="M25.3333 181.667C25.2778 181.722 25.2222 182.778 25.6667 182.333C25.7222 182.278 25.7778 181.222 25.3333 181.667M199.333 181.667C199.278 181.722 199.222 182.778 199.667 182.333C199.722 182.278 199.778 181.222 199.333 181.667z"/>
<path style="fill:#6f6f6f; stroke:none;" d="M200 181L201 182L200 181z"/>
<path style="fill:#7d7d7d; stroke:none;" d="M26 182L27 183L26 182M198 182L199 183L198 182z"/>
<path style="fill:#000000; stroke:none;" d="M26 183C27.5489 185.136 28.8643 186.451 31 188C29.4511 185.864 28.1357 184.549 26 183z"/>
<path style="fill:#aaaaaa; stroke:none;" d="M27 183L28 184L27 183z"/>
<path style="fill:#a8a8a8; stroke:none;" d="M197 183L198 184L197 183z"/>
<path style="fill:#000000; stroke:none;" d="M198 183L199 184L198 183z"/>
<path style="fill:#cbcbcb; stroke:none;" d="M28 184L29 185L28 184M196 184L197 185L196 184z"/>
<path style="fill:#000000; stroke:none;" d="M197 184L194 188C195.756 186.623 196.54 186.106 197 184z"/>
<path style="fill:#b5b5b5; stroke:none;" d="M27 185L28 186L27 185M197 185L198 186L197 185z"/>
<path style="fill:#9c9c9c; stroke:none;" d="M28 186L29 187L28 186M196 186L197 187L196 186z"/>
<path style="fill:#818181; stroke:none;" d="M29 187L30 188L29 187M195 187L196 188L195 187z"/>
<path style="fill:#6b6b6b; stroke:none;" d="M30 188L31 189L30 188z"/>
<path style="fill:#464646; stroke:none;" d="M31 188C32.4798 191.166 34.1684 192.951 37 195C35.5202 191.834 33.8316 190.049 31 188z"/>
<path style="fill:#252525; stroke:none;" d="M193 188L194 189L193 188z"/>
<path style="fill:#6b6b6b; stroke:none;" d="M194 188L195 189L194 188z"/>
<path style="fill:#464646; stroke:none;" d="M189 194C191.136 192.451 192.451 191.136 194 189C191.313 190.324 190.324 191.313 189 194z"/>
<path style="fill:#252525; stroke:none;" d="M188 193L189 194L188 193z"/>
<path style="fill:#000000; stroke:none;" d="M37 194C38.5489 196.136 39.8643 197.451 42 199C40.4511 196.864 39.1357 195.549 37 194M187 194L183 199C185.089 197.444 186.403 196.512 187 194z"/>
<path style="fill:#6b6b6b; stroke:none;" d="M188 194L189 195L188 194z"/>
<path style="fill:#818181; stroke:none;" d="M37 195L38 196L37 195M187 195L188 196L187 195z"/>
<path style="fill:#9c9c9c; stroke:none;" d="M38 196L39 197L38 196z"/>
<path style="fill:#cbcbcb; stroke:none;" d="M40 196L41 197L40 196M184 196L185 197L184 196z"/>
<path style="fill:#9c9c9c; stroke:none;" d="M186 196L187 197L186 196z"/>
<path style="fill:#b5b5b5; stroke:none;" d="M39 197L40 198L39 197z"/>
<path style="fill:#a8a8a8; stroke:none;" d="M41 197L42 198L41 197z"/>
<path style="fill:#aaaaaa; stroke:none;" d="M183 197L184 198L183 197z"/>
<path style="fill:#b5b5b5; stroke:none;" d="M185 197L186 198L185 197z"/>
<path style="fill:#7d7d7d; stroke:none;" d="M42 198L43 199L42 198M182 198L183 199L182 198z"/>
<path style="fill:#333333; stroke:none;" d="M42.6667 199.333C42.2222 199.778 43.2778 199.722 43.3333 199.667C43.7778 199.222 42.7222 199.278 42.6667 199.333z"/>
<path style="fill:#2b2b2b; stroke:none;" d="M181.667 199.333C181.222 199.778 182.278 199.722 182.333 199.667C182.778 199.222 181.722 199.278 181.667 199.333z"/>
<path style="fill:#6f6f6f; stroke:none;" d="M43 200L44 201L43 200z"/>
<path style="fill:#000000; stroke:none;" d="M44 200C44.5451 201.635 44.3648 201.455 46 202C45.4549 200.365 45.6352 200.545 44 200M180 200C178.814 201.186 178.472 201.584 178 203C179.548 201.738 179.808 201.806 180 200z"/>
<path style="fill:#6f6f6f; stroke:none;" d="M181 200L182 201L181 200z"/>
<path style="fill:#b5b5b5; stroke:none;" d="M44 201L45 202L44 201z"/>
<path style="fill:#9c9c9c; stroke:none;" d="M46 201L47 202L46 201M178 201L179 202L178 201z"/>
<path style="fill:#aaaaaa; stroke:none;" d="M180 201L181 202L180 201z"/>
<path style="fill:#0f0f0f; stroke:none;" d="M46 202L47 203L46 202z"/>
<path style="fill:#6f6f6f; stroke:none;" d="M47.3333 202.667C47.2778 202.722 47.2222 203.778 47.6667 203.333C47.7222 203.278 47.7778 202.222 47.3333 202.667M177.333 202.667C177.278 202.722 177.222 203.778 177.667 203.333C177.722 203.278 177.778 202.222 177.333 202.667z"/>
<path style="fill:#000000; stroke:none;" d="M48 203C48.5451 204.635 48.3648 204.455 50 205C49.4549 203.365 49.6352 203.545 48 203z"/>
<path style="fill:#c0c0c0; stroke:none;" d="M49 203L50 204L49 203M175 203C175.545 204.635 175.365 204.455 177 205C176.455 203.365 176.635 203.545 175 203z"/>
<path style="fill:#000000; stroke:none;" d="M176 203L177 204L176 203z"/>
<path style="fill:#c0c0c0; stroke:none;" d="M48 204L49 205L48 204z"/>
<path style="fill:#555555; stroke:none;" d="M50.3333 204.667C50.2778 204.722 50.2222 205.778 50.6667 205.333C50.7222 205.278 50.7778 204.222 50.3333 204.667M174.333 204.667C174.278 204.722 174.222 205.778 174.667 205.333C174.722 205.278 174.778 204.222 174.333 204.667z"/>
<path style="fill:#000000; stroke:none;" d="M175 204L176 205L175 204M51 205C51.5451 206.635 51.3648 206.455 53 207C52.4549 205.365 52.6352 205.545 51 205z"/>
<path style="fill:#c0c0c0; stroke:none;" d="M52 205L53 206L52 205M172 205L173 206L172 205z"/>
<path style="fill:#000000; stroke:none;" d="M173 205L172 207C173.263 206.029 173.392 206.306 173 205z"/>
<path style="fill:#c0c0c0; stroke:none;" d="M51 206L52 207L51 206z"/>
<path style="fill:#6f6f6f; stroke:none;" d="M53.3333 206.667C53.2778 206.722 53.2222 207.778 53.6667 207.333C53.7222 207.278 53.7778 206.222 53.3333 206.667M171.333 206.667C171.278 206.722 171.222 207.778 171.667 207.333C171.722 207.278 171.778 206.222 171.333 206.667z"/>
<path style="fill:#bababa; stroke:none;" d="M173 206L174 207L173 206z"/>
<path style="fill:#000000; stroke:none;" d="M54 207L55 208L54 207z"/>
<path style="fill:#a1a1a1; stroke:none;" d="M55 207L56 208L55 207M169 207L170 208L169 207z"/>
<path style="fill:#000000; stroke:none;" d="M170 207L171 208L170 207z"/>
<path style="fill:#0f0f0f; stroke:none;" d="M55.6667 208.333C55.2222 208.778 56.2778 208.722 56.3333 208.667C56.7778 208.222 55.7222 208.278 55.6667 208.333z"/>
<path style="fill:#cbcbcb; stroke:none;" d="M57 208L58 209L57 208M167 208L168 209L167 208z"/>
<path style="fill:#2b2b2b; stroke:none;" d="M168.667 208.333C168.222 208.778 169.278 208.722 169.333 208.667C169.778 208.222 168.722 208.278 168.667 208.333z"/>
<path style="fill:#aaaaaa; stroke:none;" d="M56 209L57 210L56 209z"/>
<path style="fill:#000000; stroke:none;" d="M57 209L58 210L57 209z"/>
<path style="fill:#555555; stroke:none;" d="M58 209L59 210L58 209z"/>
<path style="fill:#818181; stroke:none;" d="M166.333 209.667C166.278 209.722 166.222 210.778 166.667 210.333C166.722 210.278 166.778 209.222 166.333 209.667z"/>
<path style="fill:#000000; stroke:none;" d="M167 209L168 210L167 209z"/>
<path style="fill:#a8a8a8; stroke:none;" d="M168 209L169 210L168 209z"/>
<path style="fill:#818181; stroke:none;" d="M58 210L59 211L58 210z"/>
<path style="fill:#000000; stroke:none;" d="M59 210L60 211L59 210z"/>
<path style="fill:#6b6b6b; stroke:none;" d="M60.3333 210.667C60.2778 210.722 60.2222 211.778 60.6667 211.333C60.7222 211.278 60.7778 210.222 60.3333 210.667z"/>
<path style="fill:#676767; stroke:none;" d="M164.333 210.667C164.278 210.722 164.222 211.778 164.667 211.333C164.722 211.278 164.778 210.222 164.333 210.667z"/>
<path style="fill:#000000; stroke:none;" d="M165 210L166 211L165 210M61 211L62 212L61 211z"/>
<path style="fill:#676767; stroke:none;" d="M62.3333 211.667C62.2778 211.722 62.2222 212.778 62.6667 212.333C62.7222 212.278 62.7778 211.222 62.3333 211.667M162.333 211.667C162.278 211.722 162.222 212.778 162.667 212.333C162.722 212.278 162.778 211.222 162.333 211.667z"/>
<path style="fill:#000000; stroke:none;" d="M163 211L164 212L163 211M63 212L64 213L63 212z"/>
<path style="fill:#6b6b6b; stroke:none;" d="M64.3333 212.667C64.2778 212.722 64.2222 213.778 64.6667 213.333C64.7222 213.278 64.7778 212.222 64.3333 212.667M160.333 212.667C160.278 212.722 160.222 213.778 160.667 213.333C160.722 213.278 160.778 212.222 160.333 212.667z"/>
<path style="fill:#000000; stroke:none;" d="M161 212L162 213L161 212M65 213L66 214L65 213z"/>
<path style="fill:#818181; stroke:none;" d="M66.3333 213.667C66.2778 213.722 66.2222 214.778 66.6667 214.333C66.7222 214.278 66.7778 213.222 66.3333 213.667M158.333 213.667C158.278 213.722 158.222 214.778 158.667 214.333C158.722 214.278 158.778 213.222 158.333 213.667z"/>
<path style="fill:#000000; stroke:none;" d="M159 213L160 214L159 213M67 214L68 215L67 214z"/>
<path style="fill:#333333; stroke:none;" d="M68 214L69 215L68 214z"/>
<path style="fill:#c0c0c0; stroke:none;" d="M69 214L70 215L69 214M155 214L156 215L155 214z"/>
<path style="fill:#3d3d3d; stroke:none;" d="M156 214L157 215L156 214z"/>
<path style="fill:#000000; stroke:none;" d="M157 214L158 215L157 214z"/>
<path style="fill:#a8a8a8; stroke:none;" d="M68 215L69 216L68 215z"/>
<path style="fill:#000000; stroke:none;" d="M69.6667 215.333C69.2222 215.778 70.2778 215.722 70.3333 215.667C70.7778 215.222 69.7222 215.278 69.6667 215.333z"/>
<path style="fill:#8f8f8f; stroke:none;" d="M71 215L72 216L71 215M153 215L154 216L153 215z"/>
<path style="fill:#0f0f0f; stroke:none;" d="M154.667 215.333C154.222 215.778 155.278 215.722 155.333 215.667C155.778 215.222 154.722 215.278 154.667 215.333z"/>
<path style="fill:#a1a1a1; stroke:none;" d="M156 215L157 216L156 215z"/>
<path style="fill:#cbcbcb; stroke:none;" d="M70 216L71 217L70 216z"/>
<path style="fill:#5a5a5a; stroke:none;" d="M71 216L72 217L71 216z"/>
<path style="fill:#000000; stroke:none;" d="M72 216L73 217L72 216z"/>
<path style="fill:#464646; stroke:none;" d="M73 216L74 217L73 216z"/>
<path style="fill:#b5b5b5; stroke:none;" d="M74 216L75 217L74 216M150 216L151 217L150 216z"/>
<path style="fill:#4e4e4e; stroke:none;" d="M151 216L152 217L151 216z"/>
<path style="fill:#000000; stroke:none;" d="M152 216L153 217L152 216z"/>
<path style="fill:#5a5a5a; stroke:none;" d="M153 216L154 217L153 216z"/>
<path style="fill:#cbcbcb; stroke:none;" d="M154 216L155 217L154 216z"/>
<path style="fill:#a1a1a1; stroke:none;" d="M73 217L74 218L73 217z"/>
<path style="fill:#000000; stroke:none;" d="M74.6667 217.333C74.2222 217.778 75.2778 217.722 75.3333 217.667C75.7778 217.222 74.7222 217.278 74.6667 217.333z"/>
<path style="fill:#616161; stroke:none;" d="M76 217L77 218L76 217z"/>
<path style="fill:#c0c0c0; stroke:none;" d="M77 217L78 218L77 217M147 217L148 218L147 217z"/>
<path style="fill:#616161; stroke:none;" d="M148 217L149 218L148 217z"/>
<path style="fill:#1f1f1f; stroke:none;" d="M149.667 217.333C149.222 217.778 150.278 217.722 150.333 217.667C150.778 217.222 149.722 217.278 149.667 217.333z"/>
<path style="fill:#a1a1a1; stroke:none;" d="M151 217L152 218L151 217z"/>
<path style="fill:#8f8f8f; stroke:none;" d="M76 218L77 219L76 218z"/>
<path style="fill:#000000; stroke:none;" d="M77.6667 218.333C77.2222 218.778 78.2778 218.722 78.3333 218.667C78.7778 218.222 77.7222 218.278 77.6667 218.333z"/>
<path style="fill:#616161; stroke:none;" d="M79 218L80 219L79 218z"/>
<path style="fill:#b5b5b5; stroke:none;" d="M80 218L81 219L80 218M144 218L145 219L144 218z"/>
<path style="fill:#616161; stroke:none;" d="M145 218L146 219L145 218z"/>
<path style="fill:#000000; stroke:none;" d="M146.667 218.333C146.222 218.778 147.278 218.722 147.333 218.667C147.778 218.222 146.722 218.278 146.667 218.333z"/>
<path style="fill:#8f8f8f; stroke:none;" d="M148 218L149 219L148 218z"/>
<path style="fill:#9c9c9c; stroke:none;" d="M79 219L80 220L79 219z"/>
<path style="fill:#3d3d3d; stroke:none;" d="M80 219L81 220L80 219z"/>
<path style="fill:#1f1f1f; stroke:none;" d="M81.6667 219.333C81.2222 219.778 82.2778 219.722 82.3333 219.667C82.7778 219.222 81.7222 219.278 81.6667 219.333z"/>
<path style="fill:#6b6b6b; stroke:none;" d="M83.3333 219.667C83.2778 219.722 83.2222 220.778 83.6667 220.333C83.7222 220.278 83.7778 219.222 83.3333 219.667M141.333 219.667C141.278 219.722 141.222 220.778 141.667 220.333C141.722 220.278 141.778 219.222 141.333 219.667z"/>
<path style="fill:#000000; stroke:none;" d="M142.667 219.333C142.222 219.778 143.278 219.722 143.333 219.667C143.778 219.222 142.722 219.278 142.667 219.333z"/>
<path style="fill:#3d3d3d; stroke:none;" d="M144 219L145 220L144 219z"/>
<path style="fill:#9c9c9c; stroke:none;" d="M145 219L146 220L145 219z"/>
<path style="fill:#bababa; stroke:none;" d="M82 220L83 221L82 220z"/>
<path style="fill:#000000; stroke:none;" d="M84.6667 220.333C84.2222 220.778 85.2778 220.722 85.3333 220.667C85.7778 220.222 84.7222 220.278 84.6667 220.333z"/>
<path style="fill:#383838; stroke:none;" d="M86 220L87 221L86 220z"/>
<path style="fill:#6f6f6f; stroke:none;" d="M87.3333 220.667C87.2778 220.722 87.2222 221.778 87.6667 221.333C87.7222 221.278 87.7778 220.222 87.3333 220.667z"/>
<path style="fill:#c8c8c8; stroke:none;" d="M136 220L137 221L136 220z"/>
<path style="fill:#6f6f6f; stroke:none;" d="M137.333 220.667C137.278 220.722 137.222 221.778 137.667 221.333C137.722 221.278 137.778 220.222 137.333 220.667z"/>
<path style="fill:#383838; stroke:none;" d="M138 220L139 221L138 220z"/>
<path style="fill:#0f0f0f; stroke:none;" d="M139.667 220.333C139.222 220.778 140.278 220.722 140.333 220.667C140.778 220.222 139.722 220.278 139.667 220.333z"/>
<path style="fill:#bababa; stroke:none;" d="M142 220L143 221L142 220z"/>
<path style="fill:#b5b5b5; stroke:none;" d="M86 221L87 222L86 221z"/>
<path style="fill:#000000; stroke:none;" d="M88 221C89.2484 221.685 89.5484 221.749 91 222C89.7516 221.315 89.4516 221.251 88 221z"/>
<path style="fill:#555555; stroke:none;" d="M91 221L92 222L91 221z"/>
<path style="fill:#c0c0c0; stroke:none;" d="M92.6667 221.333C92.2222 221.778 93.2778 221.722 93.3333 221.667C93.7778 221.222 92.7222 221.278 92.6667 221.333z"/>
<path style="fill:#9c9c9c; stroke:none;" d="M131.667 221.333C131.222 221.778 132.278 221.722 132.333 221.667C132.778 221.222 131.722 221.278 131.667 221.333z"/>
<path style="fill:#5a5a5a; stroke:none;" d="M133 221L134 222L133 221z"/>
<path style="fill:#000000; stroke:none;" d="M134 221C135.248 221.685 135.548 221.749 137 222C135.752 221.315 135.452 221.251 134 221z"/>
<path style="fill:#b5b5b5; stroke:none;" d="M138 221L139 222L138 221z"/>
<path style="fill:#a1a1a1; stroke:none;" d="M90.6667 222.333C90.2222 222.778 91.2778 222.722 91.3333 222.667C91.7778 222.222 90.7222 222.278 90.6667 222.333z"/>
<path style="fill:#676767; stroke:none;" d="M92 222L93 223L92 222z"/>
<path style="fill:#000000; stroke:none;" d="M93 222C94.2483 222.685 94.5484 222.749 96 223C94.7516 222.315 94.4516 222.251 93 222z"/>
<path style="fill:#555555; stroke:none;" d="M96.6667 222.333C96.2222 222.778 97.2778 222.722 97.3333 222.667C97.7778 222.222 96.7222 222.278 96.6667 222.333z"/>
<path style="fill:#888888; stroke:none;" d="M97 224L100 224L99 222C97.3648 222.545 97.5451 222.365 97 224z"/>
<path style="fill:#bababa; stroke:none;" d="M99.6667 222.333C99.2222 222.778 100.278 222.722 100.333 222.667C100.778 222.222 99.7222 222.278 99.6667 222.333M123 222C124.248 222.685 124.548 222.749 126 223C124.752 222.315 124.452 222.251 123 222z"/>
<path style="fill:#888888; stroke:none;" d="M125 224L128 224L127 222C125.365 222.545 125.545 222.365 125 224z"/>
<path style="fill:#2b2b2b; stroke:none;" d="M127.667 222.333C127.222 222.778 128.278 222.722 128.333 222.667C128.778 222.222 127.722 222.278 127.667 222.333z"/>
<path style="fill:#000000; stroke:none;" d="M129 222C130.248 222.685 130.548 222.749 132 223C130.752 222.315 130.452 222.251 129 222z"/>
<path style="fill:#6b6b6b; stroke:none;" d="M132 222L133 223L132 222z"/>
<path style="fill:#cbcbcb; stroke:none;" d="M133.667 222.333C133.222 222.778 134.278 222.722 134.333 222.667C134.778 222.222 133.722 222.278 133.667 222.333M95.6667 223.333C95.2222 223.778 96.2778 223.722 96.3333 223.667C96.7778 223.222 95.7222 223.278 95.6667 223.333z"/>
<path style="fill:#000000; stroke:none;" d="M100 223C102.052 223.874 103.747 223.953 106 224C103.948 223.126 102.253 223.047 100 223z"/>
<path style="fill:#3d3d3d; stroke:none;" d="M106.667 223.333C106.222 223.778 107.278 223.722 107.333 223.667C107.778 223.222 106.722 223.278 106.667 223.333z"/>
<path style="fill:#555555; stroke:none;" d="M108 223C111.163 224.327 114.586 224 118 224C114.837 222.673 111.414 223 108 223z"/>
<path style="fill:#000000; stroke:none;" d="M118 223C120.332 223.985 122.457 223.981 125 224C122.668 223.015 120.543 223.019 118 223z"/>
<path style="fill:#e2e2e2; stroke:none;" d="M128.667 223.333C128.222 223.778 129.278 223.722 129.333 223.667C129.778 223.222 128.722 223.278 128.667 223.333z"/>
<path style="fill:#cbcbcb; stroke:none;" d="M103 224C105.052 224.874 106.747 224.953 109 225C106.948 224.126 105.253 224.047 103 224z"/>
<path style="fill:#aaaaaa; stroke:none;" d="M109 224C111.613 225.098 114.165 224.993 117 225C114.387 223.902 111.836 224.007 109 224z"/>
<path style="fill:#e2e2e2; stroke:none;" d="M117 224C118.769 224.779 120.036 224.912 122 225C120.231 224.221 118.964 224.088 117 224z"/>
</svg>
